<?xml version="1.0" encoding="UTF-8" standalone="no"?>
<!-- Created with Inkscape (http://www.inkscape.org/) -->

<svg
   xmlns:dc="http://purl.org/dc/elements/1.1/"
   xmlns:cc="http://creativecommons.org/ns#"
   xmlns:rdf="http://www.w3.org/1999/02/22-rdf-syntax-ns#"
   xmlns:svg="http://www.w3.org/2000/svg"
   xmlns="http://www.w3.org/2000/svg"
   xmlns:sodipodi="http://sodipodi.sourceforge.net/DTD/sodipodi-0.dtd"
   xmlns:inkscape="http://www.inkscape.org/namespaces/inkscape"
   width="98.417145mm"
   height="98.213333mm"
   viewBox="0 0 348.72217 348"
   id="svg2"
   version="1.1"
   inkscape:version="0.91 r13725"
   sodipodi:docname="LeterKeys.svg">
  <defs
     id="defs4" />
  <sodipodi:namedview
     id="base"
     pagecolor="#ffffff"
     bordercolor="#666666"
     borderopacity="1.0"
     inkscape:pageopacity="0.0"
     inkscape:pageshadow="2"
     inkscape:zoom="1.4"
     inkscape:cx="111.79794"
     inkscape:cy="447.63121"
     inkscape:document-units="px"
     inkscape:current-layer="layer1"
     showgrid="false"
     fit-margin-top="0"
     fit-margin-left="0"
     fit-margin-right="0"
     fit-margin-bottom="0"
     inkscape:window-width="1366"
     inkscape:window-height="705"
     inkscape:window-x="1358"
     inkscape:window-y="-8"
     inkscape:window-maximized="1" />
  <metadata
     id="metadata7">
    <rdf:RDF>
      <cc:Work
         rdf:about="">
        <dc:format>image/svg+xml</dc:format>
        <dc:type
           rdf:resource="http://purl.org/dc/dcmitype/StillImage" />
        <dc:title></dc:title>
      </cc:Work>
    </rdf:RDF>
  </metadata>
  <g
     inkscape:groupmode="layer"
     id="layer2"
     inkscape:label="Layer 2"
     transform="translate(-16.849268,-291.93364)" />
  <g
     inkscape:label="Layer 1"
     inkscape:groupmode="layer"
     id="layer1"
     transform="translate(-16.849268,-291.93364)">
    <g
       id="g3952">
      <g
         id="g3891">
        <path
           id="path3343"
           d="m 17.571427,291.93364 348.000003,0 0,348 -348.000003,0 z"
           inkscape:connector-curvature="0"
           style="fill:#000000;fill-opacity:0;fill-rule:nonzero;stroke:none;stroke-linecap:square;stroke-miterlimit:10" />
        <path
           id="path3347"
           d="m 22.650167,297.70946 336.913403,0 0,337.6693 -336.913403,0 z"
           inkscape:connector-curvature="0"
           style="fill:#000000;fill-opacity:0;fill-rule:nonzero;stroke:none;stroke-linecap:square;stroke-miterlimit:10" />
        <path
           id="path3349"
           d="m 22.650167,297.70946 336.913403,0 0,337.6693 -336.913403,0 z"
           inkscape:connector-curvature="0"
           style="fill:none;fill-rule:nonzero;stroke:#000000;stroke-width:2;stroke-linecap:butt;stroke-linejoin:round;stroke-miterlimit:10" />
        <path
           id="path3351"
           d="m 300.30587,332.48757 0,0 c 0,-8.3756 6.96603,-15.16536 15.55905,-15.16536 l 0,0 c 4.12653,0 8.08402,1.59778 11.00192,4.44183 2.91788,2.84406 4.55713,6.70142 4.55713,10.72353 l 0,0 c 0,8.37559 -6.966,15.16535 -15.55905,15.16535 l 0,0 c -8.59302,0 -15.55905,-6.78976 -15.55905,-15.16535 z"
           inkscape:connector-curvature="0"
           style="fill:#ffffff;fill-rule:nonzero;stroke:none;stroke-linecap:square;stroke-miterlimit:10" />
        <path
           id="path3353"
           d="m 300.30587,332.48757 0,0 c 0,-8.3756 6.96603,-15.16536 15.55905,-15.16536 l 0,0 c 4.12653,0 8.08402,1.59778 11.00192,4.44183 2.91788,2.84406 4.55713,6.70142 4.55713,10.72353 l 0,0 c 0,8.37559 -6.966,15.16535 -15.55905,15.16535 l 0,0 c -8.59302,0 -15.55905,-6.78976 -15.55905,-15.16535 z"
           inkscape:connector-curvature="0"
           style="fill:none;fill-rule:nonzero;stroke:#000000;stroke-width:2;stroke-linecap:butt;stroke-linejoin:round;stroke-miterlimit:10" />
        <path
           id="path3355"
           d="m 55.941507,387.67025 107.212613,0 0,100.18897 -107.212613,0 z"
           inkscape:connector-curvature="0"
           style="fill:#000000;fill-opacity:0;fill-rule:nonzero;stroke:none;stroke-linecap:square;stroke-miterlimit:10" />
        <path
           id="path3357"
           d="m 55.941507,387.67025 107.212613,0 0,100.18897 -107.212613,0 z"
           inkscape:connector-curvature="0"
           style="fill:none;fill-rule:nonzero;stroke:#000000;stroke-width:1;stroke-linecap:butt;stroke-linejoin:round;stroke-miterlimit:10" />
        <path
           id="path3361"
           d="m 170.05175,387.67025 107.21258,0 0,100.18897 -107.21258,0 z"
           inkscape:connector-curvature="0"
           style="fill:#000000;fill-opacity:0;fill-rule:nonzero;stroke:none;stroke-linecap:square;stroke-miterlimit:10" />
        <path
           id="path3363"
           d="m 170.05175,387.67025 107.21258,0 0,100.18897 -107.21258,0 z"
           inkscape:connector-curvature="0"
           style="fill:none;fill-rule:nonzero;stroke:#000000;stroke-width:1;stroke-linecap:butt;stroke-linejoin:round;stroke-miterlimit:10" />
        <path
           id="path3367"
           d="m 55.941507,498.45445 107.212613,0 0,100.18897 -107.212613,0 z"
           inkscape:connector-curvature="0"
           style="fill:#000000;fill-opacity:0;fill-rule:nonzero;stroke:none;stroke-linecap:square;stroke-miterlimit:10" />
        <path
           id="path3369"
           d="m 55.941507,498.45445 107.212613,0 0,100.18897 -107.212613,0 z"
           inkscape:connector-curvature="0"
           style="fill:none;fill-rule:nonzero;stroke:#000000;stroke-width:1;stroke-linecap:butt;stroke-linejoin:round;stroke-miterlimit:10" />
        <path
           id="path3373"
           d="m 170.05175,498.45445 107.21258,0 0,100.18897 -107.21258,0 z"
           inkscape:connector-curvature="0"
           style="fill:#000000;fill-opacity:0;fill-rule:nonzero;stroke:none;stroke-linecap:square;stroke-miterlimit:10" />
        <path
           id="path3375"
           d="m 170.05175,498.45445 107.21258,0 0,100.18897 -107.21258,0 z"
           inkscape:connector-curvature="0"
           style="fill:none;fill-rule:nonzero;stroke:#000000;stroke-width:1;stroke-linecap:butt;stroke-linejoin:round;stroke-miterlimit:10" />
        <path
           id="path3379"
           d="m 99.673787,393.98351 19.748033,0 0,5.63779 -19.748033,0 z"
           inkscape:connector-curvature="0"
           style="fill:#000000;fill-rule:nonzero;stroke:none;stroke-linecap:square;stroke-miterlimit:10" />
        <path
           id="path3381"
           d="m 99.673787,393.98351 19.748033,0 0,5.63779 -19.748033,0 z"
           inkscape:connector-curvature="0"
           style="fill:none;fill-rule:nonzero;stroke:#000000;stroke-width:2;stroke-linecap:butt;stroke-linejoin:round;stroke-miterlimit:10" />
        <path
           id="path3383"
           d="m 213.78403,393.98351 19.74803,0 0,5.63779 -19.74803,0 z"
           inkscape:connector-curvature="0"
           style="fill:#000000;fill-rule:nonzero;stroke:none;stroke-linecap:square;stroke-miterlimit:10" />
        <path
           id="path3385"
           d="m 213.78403,393.98351 19.74803,0 0,5.63779 -19.74803,0 z"
           inkscape:connector-curvature="0"
           style="fill:none;fill-rule:nonzero;stroke:#000000;stroke-width:2;stroke-linecap:butt;stroke-linejoin:round;stroke-miterlimit:10" />
        <path
           id="path3387"
           d="m 99.673787,505.45857 19.748033,0 0,5.6378 -19.748033,0 z"
           inkscape:connector-curvature="0"
           style="fill:#000000;fill-rule:nonzero;stroke:none;stroke-linecap:square;stroke-miterlimit:10" />
        <path
           id="path3389"
           d="m 99.673787,505.45857 19.748033,0 0,5.6378 -19.748033,0 z"
           inkscape:connector-curvature="0"
           style="fill:none;fill-rule:nonzero;stroke:#000000;stroke-width:2;stroke-linecap:butt;stroke-linejoin:round;stroke-miterlimit:10" />
        <path
           id="path3391"
           d="m 213.78403,505.45857 19.74803,0 0,5.6378 -19.74803,0 z"
           inkscape:connector-curvature="0"
           style="fill:#000000;fill-rule:nonzero;stroke:none;stroke-linecap:square;stroke-miterlimit:10" />
        <path
           id="path3393"
           d="m 213.78403,505.45857 19.74803,0 0,5.6378 -19.74803,0 z"
           inkscape:connector-curvature="0"
           style="fill:none;fill-rule:nonzero;stroke:#000000;stroke-width:2;stroke-linecap:butt;stroke-linejoin:round;stroke-miterlimit:10" />
        <text
           xml:space="preserve"
           style="font-style:normal;font-weight:normal;font-size:94.70850372px;line-height:125%;font-family:Sans;letter-spacing:0px;word-spacing:0px;fill:#000000;fill-opacity:1;stroke:none;stroke-width:1px;stroke-linecap:butt;stroke-linejoin:miter;stroke-opacity:1"
           x="77.876892"
           y="475.41064"
           id="text3875"
           sodipodi:linespacing="125%"><tspan
             sodipodi:role="line"
             id="tspan3877"
             x="77.876892"
             y="475.41064">A</tspan></text>
        <text
           xml:space="preserve"
           style="font-style:normal;font-weight:normal;font-size:95.03865051px;line-height:125%;font-family:Sans;letter-spacing:0px;word-spacing:0px;fill:#000000;fill-opacity:1;stroke:none;stroke-width:1px;stroke-linecap:butt;stroke-linejoin:miter;stroke-opacity:1"
           x="195.3394"
           y="476.66382"
           id="text3879"
           sodipodi:linespacing="125%"><tspan
             sodipodi:role="line"
             id="tspan3881"
             x="195.3394"
             y="476.66382">B</tspan></text>
        <text
           xml:space="preserve"
           style="font-style:normal;font-weight:normal;font-size:96.64487457px;line-height:125%;font-family:Sans;letter-spacing:0px;word-spacing:0px;fill:#000000;fill-opacity:1;stroke:none;stroke-width:1px;stroke-linecap:butt;stroke-linejoin:miter;stroke-opacity:1"
           x="72.533531"
           y="588.57843"
           id="text3883"
           sodipodi:linespacing="125%"><tspan
             sodipodi:role="line"
             id="tspan3885"
             x="72.533531"
             y="588.57843">C</tspan></text>
        <text
           xml:space="preserve"
           style="font-style:normal;font-weight:normal;font-size:94.01482391px;line-height:125%;font-family:Sans;letter-spacing:0px;word-spacing:0px;fill:#000000;fill-opacity:1;stroke:none;stroke-width:1px;stroke-linecap:butt;stroke-linejoin:miter;stroke-opacity:1"
           x="189.01082"
           y="588.06232"
           id="text3887"
           sodipodi:linespacing="125%"><tspan
             sodipodi:role="line"
             id="tspan3889"
             x="189.01082"
             y="588.06232">D</tspan></text>
      </g>
      <g
         transform="translate(8.2778397,371.94938)"
         id="g3599"
         style="fill:none;stroke:none;stroke-linecap:square;stroke-miterlimit:10">
        <path
           id="path3437"
           d="m 8.5714287,-80 346.1049813,0 0,347.36746 -346.1049813,0 z"
           inkscape:connector-curvature="0"
           style="fill:#000000;fill-opacity:0;fill-rule:nonzero" />
        <path
           id="path3441"
           d="m 13.650169,-74.224178 336.913401,0 0,337.669278 -336.913401,0 z"
           inkscape:connector-curvature="0"
           style="fill:#000000;fill-opacity:0;fill-rule:nonzero" />
        <g
           id="g3762">
          <path
             style="fill-rule:nonzero;stroke:#000000;stroke-width:2;stroke-linecap:butt;stroke-linejoin:round"
             inkscape:connector-curvature="0"
             d="m 13.650169,-74.224178 336.913401,0 0,337.669278 -336.913401,0 z"
             id="path3443" />
        </g>
        <path
           id="path3445"
           d="m 142.41394,-64.333333 74.33072,0 0,56.881886 -74.33072,0 z"
           inkscape:connector-curvature="0"
           style="fill:#000000;fill-rule:nonzero" />
        <path
           id="path3447"
           d="m 163.11055,-35.910206 q 0,-4.0625 0.82812,-6.53125 0.84375,-2.484375 2.48438,-3.828125 1.65625,-1.34375 4.15625,-1.34375 1.84375,0 3.23437,0.75 1.39063,0.734375 2.29688,2.140625 0.90625,1.390625 1.42187,3.40625 0.51563,2 0.51563,5.40625 0,4.03125 -0.82813,6.515625 -0.82812,2.46875 -2.48437,3.828125 -1.64063,1.34375 -4.15625,1.34375 -3.3125,0 -5.20313,-2.375 -2.26562,-2.859375 -2.26562,-9.3125 z m 2.89062,0 q 0,5.640625 1.3125,7.515625 1.32813,1.859375 3.26563,1.859375 1.9375,0 3.25,-1.875 1.32812,-1.875 1.32812,-7.5 0,-5.65625 -1.32812,-7.515625 -1.3125,-1.859375 -3.28125,-1.859375 -1.9375,0 -3.09375,1.640625 -1.45313,2.09375 -1.45313,7.734375 z m 14.90625,0 q 0,-4.0625 0.82813,-6.53125 0.84375,-2.484375 2.48437,-3.828125 1.65625,-1.34375 4.15625,-1.34375 1.84375,0 3.23438,0.75 1.39062,0.734375 2.29687,2.140625 0.90625,1.390625 1.42188,3.40625 0.51562,2 0.51562,5.40625 0,4.03125 -0.82812,6.515625 -0.82813,2.46875 -2.48438,3.828125 -1.64062,1.34375 -4.15625,1.34375 -3.3125,0 -5.20312,-2.375 -2.26563,-2.859375 -2.26563,-9.3125 z m 2.89063,0 q 0,5.640625 1.3125,7.515625 1.32812,1.859375 3.26562,1.859375 1.9375,0 3.25,-1.875 1.32813,-1.875 1.32813,-7.5 0,-5.65625 -1.32813,-7.515625 -1.3125,-1.859375 -3.28125,-1.859375 -1.9375,0 -3.09375,1.640625 -1.45312,2.09375 -1.45312,7.734375 z"
           inkscape:connector-curvature="0"
           style="fill:#ffffff;fill-rule:nonzero" />
      </g>
    </g>
  </g>
</svg>
